PathFileType	4	(x/y/z)	A01_SLOW_T0027.trc
DataRate	CameraRate	NumFrames	NumMarkers	Units	OrigDataRate	OrigDataStartFrame	OrigNumFrames
240	240	4	48	mm	240	43	340
Frame#	Time	TOP_HEAD			R_AC			L_AC			R_ASIS			L_ASIS			R_PSIS			L_PSIS			SACRAL			L_IC			R_IC			L_GT			R_GT			R_LAT_KNEE			R_MED_KNEE			L_MED_KNEE			L_LAT_KNEE			R_TOE			L_TOE			R_1ST_MET			L_1ST_MET			L_5TH_MET			R_5TH_MET			R_LAT_ANK			R_MED_ANK			L_MED_ANK			L_LAT_ANK			L_HEEL_SUP			R_HEEL_SUP			L_HEEL_LAT			R_HEEL_LAT			L_HEEL_MED			R_HEEL_MED			R_LL_PROX_POST			R_LL_PROX_ANT			R_LL_DIST_ANT			R_LL_DIST_POST			R_THIGH_PROX_POST			R_THIGH_PROX_ANT			R_THIGH_DIST_ANT			R_THIGH_DIST_POST			L_PROS_PROX_ANT			L_PROS_PROX_POST			L_PROS_DIST_POST			L_PROS_DIST_ANT			L_THIGH_PROX_ANT			L_THIGH_PROX_POST			L_THIGH_DIST_POST			L_THIGH_DIST_ANT			
		X1	Y1	Z1	X2	Y2	Z2	X3	Y3	Z3	X4	Y4	Z4	X5	Y5	Z5	X6	Y6	Z6	X7	Y7	Z7	X8	Y8	Z8	X9	Y9	Z9	X10	Y10	Z10	X11	Y11	Z11	X12	Y12	Z12	X13	Y13	Z13	X14	Y14	Z14	X15	Y15	Z15	X16	Y16	Z16	X17	Y17	Z17	X18	Y18	Z18	X19	Y19	Z19	X20	Y20	Z20	X21	Y21	Z21	X22	Y22	Z22	X23	Y23	Z23	X24	Y24	Z24	X25	Y25	Z25	X26	Y26	Z26	X27	Y27	Z27	X28	Y28	Z28	X29	Y29	Z29	X30	Y30	Z30	X31	Y31	Z31	X32	Y32	Z32	X33	Y33	Z33	X34	Y34	Z34	X35	Y35	Z35	X36	Y36	Z36	X37	Y37	Z37	X38	Y38	Z38	X39	Y39	Z39	X40	Y40	Z40	X41	Y41	Z41	X42	Y42	Z42	X43	Y43	Z43	X44	Y44	Z44	X45	Y45	Z45	X46	Y46	Z46	X47	Y47	Z47	X48	Y48	Z48	

43	0.17552	-454.8	1723.2	238.48	-674.77	1542.6	509.39	-749.44	1525.4	59.639	-712.96	1070.7	516.44	-689.21	1017	165.11	-922.87	1076.8	376.55	-907.41	1066.2	246.61	-933.09	1042.5	310.49	-724.79	1131.6	116.14	-725.68	1182	511.93	-739.18	932.56	123.85	-795.3	967.79	552.88	-901.9	578.22	495.66	NaN	NaN	NaN	-598.71	565.29	355.58	-626.24	566.97	196.07	-1053.2	60.13	386.79	-337.98	111.18	244.77	-1124.2	57.337	340.76	-412.91	74.698	301.55	-442.73	61.551	173.47	-1145.5	56.342	477.73	-1174.8	189.52	460.17	-1163.2	197.96	359.5	-553.32	127.89	286.53	-585.68	114.19	219.89	-658.65	63.933	261.33	-1269	232.87	400.5	-643.34	37.073	229.6	-1282	210	433.58	-633.93	36.462	293.52	-1279.7	208.48	372.65	-1072.1	478.45	484.21	-1020.4	434.22	510.74	-1056.9	369.16	493.18	-1100.4	400.28	476.01	-870.65	841.8	525.18	-799.41	845.37	538.85	-815.6	755.1	530.69	-882.77	753.25	515.36	-562.78	496.06	207.89	-615.92	484.39	197.12	-609.44	421.89	204.86	-559.31	439.97	214.17	-640.72	812.74	169.21	-707.54	798.51	146.86	-678.01	729.77	163.64	-617.3	743.88	183.72
44	0.1797	-449.54	1723.5	237.51	-669.25	1543.6	508.23	-743.89	1525.4	58.445	-707.76	1071	516.03	-684.51	1017.6	164.66	-917.8	1077.4	376.91	-902.57	1066.9	246.91	-928.11	1043.1	310.87	-720.01	1131.7	115.78	-719.96	1182.9	511.1	-734.82	933.16	123.7	-789.82	968.02	552.69	-894.55	577.89	496.3	NaN	NaN	NaN	-594.28	565.53	354.78	-621.91	567.18	195.32	-1052.3	59.561	386.97	-337.4	109.68	244.54	-1122.8	58.467	340.83	-412.47	73.68	301.46	-442.44	60.6	173.33	-1144.5	57.392	477.7	-1170.5	191.4	460.74	-1158.5	199.88	360.16	-552.39	127.71	286.33	-584.94	114.1	219.76	-658.42	64.216	261.27	-1263.4	236.95	400.88	-643.16	37.291	229.6	-1277.1	214.33	433.92	-633.76	36.658	293.5	-1274.8	213.04	373.02	-1065.3	479.61	484.31	-1014.2	435.01	511.31	-1051.1	370.22	493.8	-1094.3	401.68	476.22	-864.67	841.43	525.24	-793.44	845.46	538.82	-809.1	755.07	530.87	-876.26	752.79	515.57	-558.97	495.84	207.16	-612.15	484.57	196.39	-606.23	422	204.27	-555.9	439.74	213.48	-636.29	813.12	168.52	-703.29	799.01	146.58	-673.82	730.2	163.2	-612.91	744.21	182.87
45	0.18387	-444.33	1723.8	236.57	-663.75	1544.6	507.08	-738.35	1525.4	57.276	-702.57	1071.4	515.63	-679.81	1018.1	164.21	-912.73	1077.9	377.24	-897.72	1067.5	247.18	-923.12	1043.7	311.23	-715.24	1131.8	115.41	-714.26	1183.9	510.29	-730.46	933.75	123.54	-784.36	968.3	552.5	-887.09	577.58	496.96	NaN	NaN	NaN	-589.91	565.74	353.96	-617.64	567.37	194.54	-1051.3	58.949	387.16	-336.83	108.18	244.3	-1121.3	59.721	340.94	-412.03	72.671	301.36	-442.17	59.661	173.19	-1143.4	58.552	477.68	-1166.2	193.36	461.36	-1153.7	201.87	360.87	-551.47	127.53	286.12	-584.22	114.02	219.63	-658.17	64.497	261.21	-1257.7	241.13	401.34	-642.98	37.509	229.61	-1271.9	218.76	434.34	-633.59	36.854	293.49	-1269.8	217.73	373.47	-1058.4	480.8	484.44	-1007.8	435.83	511.93	-1045.3	371.32	494.47	-1088.1	403.11	476.48	-858.66	841.08	525.31	-787.45	845.59	538.8	-802.57	755.07	531.08	-869.71	752.35	515.81	-555.22	495.61	206.39	-608.45	484.73	195.65	-603.06	422.09	203.65	-552.55	439.5	212.77	-631.87	813.45	167.77	-699.08	799.5	146.27	-669.69	730.6	162.73	-608.56	744.5	181.96
46	0.18805	-439.17	1724.2	235.66	-658.27	1545.6	505.94	-732.82	1525.5	56.132	-697.42	1071.8	515.22	-675.1	1018.7	163.76	-907.68	1078.4	377.53	-892.88	1068.1	247.42	-918.13	1044.2	311.55	-710.47	1131.9	115.05	-708.61	1184.9	509.48	-726.09	934.33	123.38	-778.89	968.62	552.3	-879.55	577.27	497.65	NaN	NaN	NaN	-585.6	565.94	353.1	-613.43	567.53	193.73	-1050.2	58.295	387.38	-336.27	106.68	244.06	-1119.7	61.099	341.09	-411.59	71.67	301.27	-441.9	58.733	173.05	-1142.1	59.829	477.68	-1161.7	195.4	462.03	-1148.8	203.94	361.62	-550.56	127.36	285.91	-583.5	113.94	219.5	-657.93	64.774	261.16	-1251.7	245.4	401.89	-642.8	37.727	229.61	-1266.6	223.27	434.84	-633.42	37.048	293.48	-1264.5	222.52	373.99	-1051.3	482.01	484.6	-1001.4	436.67	512.59	-1039.3	372.45	495.18	-1081.7	404.57	476.78	-852.61	840.76	525.41	-781.43	845.75	538.8	-795.99	755.11	531.32	-863.11	751.94	516.07	-551.53	495.35	205.6	-604.82	484.86	194.89	-599.96	422.17	203.02	-549.26	439.24	212.03	-627.47	813.75	166.97	-694.89	799.96	145.93	-665.59	730.99	162.22	-604.25	744.75	181.01
